<svg width="32" height="32" viewBox="0 0 32 32" fill="none" xmlns="http://www.w3.org/2000/svg">
<path fill-rule="evenodd" clip-rule="evenodd" d="M17.7828 5.78311C18.2709 5.29496 19.0624 5.29495 19.5505 5.7831L24.8839 11.1164C25.3721 11.6046 25.3721 12.396 24.8839 12.8842C24.3958 13.3724 23.6043 13.3724 23.1162 12.8842L17.7828 7.55088C17.2946 7.06273 17.2946 6.27127 17.7828 5.78311ZM2.75 16.0002C2.75 15.3099 3.30964 14.7502 4 14.7502H28C28.5056 14.7502 28.9614 15.0548 29.1549 15.5219C29.3483 15.989 29.2414 16.5266 28.8839 16.8841L19.5506 26.2174C19.0624 26.7056 18.2709 26.7056 17.7828 26.2174C17.2946 25.7293 17.2946 24.9378 17.7828 24.4497L24.9822 17.2502H4C3.30964 17.2502 2.75 16.6906 2.75 16.0002Z" fill="#22272F"/>
</svg>
