<svg width="32" height="32" viewBox="0 0 32 32" fill="none" xmlns="http://www.w3.org/2000/svg">
<path fill-rule="evenodd" clip-rule="evenodd" d="M15.9999 5C9.92478 5 4.99991 9.92487 4.99991 16C4.99991 16.7751 5.07993 17.5304 5.2318 18.2586C5.68403 20.4266 6.77487 22.3604 8.29852 23.8543C9.32347 23.6219 10.4516 23.2842 11.6547 22.8416C12.1731 22.651 12.7478 22.9166 12.9385 23.4349C13.1291 23.9533 12.8635 24.528 12.3452 24.7187C11.6424 24.9772 10.9541 25.2055 10.2861 25.4014C11.9516 26.4157 13.9077 27 15.9999 27C22.075 27 26.9999 22.0751 26.9999 16C26.9999 15.9177 26.999 15.8356 26.9972 15.7537C24.96 17.6971 22.2642 19.6964 19.1665 21.4848C18.7118 21.7474 18.2578 21.9999 17.8057 22.2423C17.319 22.5032 16.7129 22.3202 16.4519 21.8334C16.191 21.3466 16.3741 20.7405 16.8608 20.4796C17.2943 20.2472 17.73 20.0048 18.1665 19.7528C21.7497 17.6841 24.7092 15.3586 26.6549 13.2551C26.1065 11.1194 24.9319 9.23287 23.3362 7.8036C21.3891 6.05947 18.8194 5 15.9999 5ZM28.8183 13.8235C28.9378 14.5318 28.9999 15.259 28.9999 16C28.9999 23.1797 23.1796 29 15.9999 29C12.8477 29 9.95808 27.8783 7.70782 26.0125C6.97856 26.1392 6.2907 26.2143 5.65462 26.234C3.87448 26.2889 2.09291 25.9124 1.27744 24.5C0.696546 23.4939 0.827056 22.3195 1.25164 21.2381C1.63539 20.2608 2.30717 19.2238 3.18147 18.1765C3.06201 17.4682 2.99991 16.741 2.99991 16C2.99991 8.8203 8.82021 3 15.9999 3C19.1509 3 22.042 4.12225 24.292 5.98752C25.6364 5.7538 26.8707 5.69036 27.9092 5.84656C29.0584 6.0194 30.1412 6.49355 30.7223 7.50001C31.3032 8.50614 31.1727 9.68052 30.7481 10.7619C30.3644 11.7392 29.6926 12.7762 28.8183 13.8235ZM26.0727 7.78118C26.6623 7.74311 27.1776 7.75902 27.6118 7.82431C28.4708 7.95351 28.8425 8.24402 28.9903 8.50001C29.138 8.75591 29.2038 9.22281 28.8865 10.0309C28.7263 10.4389 28.4829 10.8924 28.156 11.3832C27.6556 10.0664 26.9477 8.85246 26.0727 7.78118ZM3.84387 20.6167C3.51685 21.1075 3.27348 21.5611 3.11328 21.9691C2.79598 22.7772 2.86175 23.2441 3.00949 23.5C3.22488 23.8731 3.92553 24.2864 5.5929 24.2349C5.70193 24.2315 5.81343 24.2262 5.92733 24.2188C5.0519 23.1471 4.34409 21.9331 3.84387 20.6167Z" fill="#22272F"/>
</svg>
