<svg width="32" height="32" viewBox="0 0 32 32" fill="none" xmlns="http://www.w3.org/2000/svg">
<path fill-rule="evenodd" clip-rule="evenodd" d="M7.11612 11.1161C7.60427 10.628 8.39573 10.628 8.88388 11.1161L16.8839 19.1161C17.372 19.6043 17.372 20.3957 16.8839 20.8839C16.3957 21.372 15.6043 21.372 15.1161 20.8839L7.11612 12.8839C6.62796 12.3957 6.62796 11.6043 7.11612 11.1161ZM24.8839 11.1161C25.372 11.6043 25.372 12.3957 24.8839 12.8839L19.5506 18.2172C19.0624 18.7054 18.2709 18.7054 17.7828 18.2172C17.2946 17.7291 17.2946 16.9376 17.7828 16.4495L23.1161 11.1161C23.6043 10.628 24.3957 10.628 24.8839 11.1161Z" fill="#22272F"/>
</svg>
