<svg width="32" height="32" viewBox="0 0 32 32" fill="none" xmlns="http://www.w3.org/2000/svg">
<path fill-rule="evenodd" clip-rule="evenodd" d="M15.3738 4.62639C14.9832 4.23587 14.3501 4.23587 13.9595 4.62639C13.569 5.01691 13.569 5.65008 13.9595 6.0406L23.9191 16.0002L21.2929 18.6264C20.9024 19.0169 20.9024 19.6501 21.2929 20.0406C21.6834 20.4311 22.3166 20.4311 22.7071 20.0406L26.0404 16.7073C26.431 16.3167 26.431 15.6836 26.0404 15.2931L15.3738 4.62639ZM19.3738 23.3739C19.7643 22.9834 19.7643 22.3502 19.3738 21.9597C18.9832 21.5692 18.3501 21.5692 17.9595 21.9597L13.9595 25.9597C13.569 26.3502 13.569 26.9834 13.9595 27.3739C14.3501 27.7645 14.9832 27.7645 15.3738 27.3739L19.3738 23.3739ZM11.3738 9.95972C10.9832 9.5692 10.3501 9.5692 9.95955 9.95972C9.56903 10.3502 9.56903 10.9834 9.95955 11.3739L14.5858 16.0002L9.95955 20.6264C9.56903 21.0169 9.56903 21.6501 9.95955 22.0406C10.3501 22.4311 10.9832 22.4311 11.3738 22.0406L16.7071 16.7073C17.0976 16.3167 17.0976 15.6836 16.7071 15.2931L11.3738 9.95972Z" fill="#22272F"/>
</svg>
