<svg width="72" height="72" viewBox="0 0 72 72" fill="none" xmlns="http://www.w3.org/2000/svg">
<path d="M55.2826 23.8145H43.5497V8.94653C43.5497 8.62872 43.2922 8.37036 42.9736 8.37036H16.7172C16.3986 8.37036 16.1411 8.62831 16.1411 8.94653V26.0445C16.1411 26.3623 16.3986 26.6206 16.7172 26.6206H20.993L19.436 31.52C19.3613 31.7567 19.4465 32.0146 19.647 32.1605C19.7478 32.2336 19.8664 32.2698 19.9853 32.2698C20.1034 32.2698 20.2207 32.2336 20.3216 32.1613L28.0295 26.6194H29.2698V42.8616C29.2698 43.1802 29.5274 43.4378 29.846 43.4378L45.0143 43.4382L52.1693 49.1042C52.2734 49.1865 52.3995 49.2287 52.5269 49.2287C52.6277 49.2287 52.729 49.2022 52.8202 49.1488C53.0247 49.0278 53.1348 48.7928 53.0954 48.5577L52.24 43.4382H55.2823C55.6009 43.4382 55.8585 43.1807 55.8585 42.8621V24.3899C55.8585 24.0725 55.6005 23.8146 55.2827 23.8146L55.2826 23.8145ZM27.8434 25.4687C27.7229 25.4687 27.6056 25.5068 27.5071 25.5772L21.0605 30.2121L22.3289 26.2192C22.3848 26.044 22.3538 25.8528 22.2449 25.7049C22.136 25.5571 21.9637 25.4687 21.7797 25.4687H17.2933L17.2929 9.52168H42.3973V25.4687L29.8446 25.4683L27.8434 25.4687ZM54.7066 42.2868H51.5598C51.3907 42.2868 51.23 42.3616 51.1203 42.4906C51.011 42.6203 50.9636 42.7907 50.9913 42.9582L51.7125 47.2738L45.5725 42.4118C45.4704 42.331 45.3442 42.2872 45.2149 42.2872H30.4219V26.621H42.9746C43.2933 26.621 43.5508 26.3631 43.5508 26.0449V24.9665H54.7067V42.2866L54.7066 42.2868Z" fill="black"/>
<path d="M20.6074 14.9018H39.0816C39.4002 14.9018 39.6578 14.6439 39.6578 14.3257C39.6578 14.0079 39.4002 13.7495 39.0816 13.7495L20.6074 13.7499C20.2896 13.7499 20.0312 14.0079 20.0312 14.3261C20.0312 14.6439 20.29 14.9018 20.6074 14.9018V14.9018Z" fill="black"/>
<path d="M20.6074 18.2109H39.0816C39.4002 18.2109 39.6578 17.953 39.6578 17.6348C39.6578 17.3169 39.4002 17.0586 39.0816 17.0586L20.6074 17.059C20.2896 17.059 20.0312 17.3169 20.0312 17.6352C20.0312 17.953 20.29 18.2109 20.6074 18.2109V18.2109Z" fill="black"/>
<path d="M31.5936 20.9438C31.5936 20.626 31.3357 20.3677 31.0175 20.3677L20.6073 20.3681C20.2895 20.3681 20.0311 20.626 20.0311 20.9442C20.0311 21.262 20.2891 21.5204 20.6073 21.5204L31.0175 21.52C31.3349 21.52 31.5936 21.2625 31.5936 20.9438V20.9438Z" fill="black"/>
<path d="M33.1602 31.2666C33.1602 31.5852 33.4181 31.8428 33.7363 31.8428H52.2105C52.5291 31.8428 52.7867 31.5852 52.7867 31.2666C52.7867 30.948 52.5291 30.6904 52.2105 30.6904L33.7363 30.6908C33.4189 30.6908 33.1602 30.948 33.1602 31.2666V31.2666Z" fill="black"/>
<path d="M52.2113 34.0005H33.7361C33.4183 34.0005 33.16 34.258 33.16 34.5767C33.16 34.8953 33.4179 35.1528 33.7361 35.1528H52.2103C52.5289 35.1528 52.7865 34.8953 52.7865 34.5767C52.7861 34.2576 52.5289 34.0005 52.2107 34.0005H52.2113Z" fill="black"/>
<path d="M44.1463 37.3083H33.7361C33.4183 37.3083 33.16 37.5659 33.16 37.8845C33.16 38.2031 33.4179 38.4607 33.7361 38.4607H44.1453C44.4639 38.4607 44.7214 38.2031 44.7214 37.8845C44.721 37.5659 44.4635 37.3083 44.1457 37.3083H44.1463Z" fill="black"/>
</svg>
