<svg width="72" height="72" viewBox="0 0 72 72" fill="none" xmlns="http://www.w3.org/2000/svg">
<path d="M55.2322 22.0721C54.6906 21.9801 54.1494 22.0721 53.7058 22.3313C53.2333 22.6021 52.9284 23.0284 52.842 23.5294L51.7877 30.0669C51.7475 30.326 51.9203 30.5679 52.1794 30.6085C52.4386 30.6486 52.6805 30.4759 52.721 30.2167L53.7749 23.6792C53.8095 23.4663 53.9533 23.2758 54.1783 23.1493C54.4318 23.0054 54.7485 22.9536 55.0711 23.0054C55.6931 23.1091 56.1599 23.5928 56.0792 24.0654L55.0192 30.4533C55.0192 30.4706 55.0136 30.4879 55.0136 30.5051L54.2534 35.0843C54.1269 35.8445 53.7407 36.5416 53.1589 37.0543L53.0151 37.1808C52.9978 37.1925 52.9805 37.2037 52.9689 37.2154L47.6814 41.8753C46.9385 42.5262 46.4431 43.4246 46.2816 44.3981L46.0743 45.6364L40.2388 44.8698L41.0396 40.0427C41.1661 39.2825 41.5523 38.5854 42.1341 38.0728L44.3459 36.1202L44.3805 36.0912L48.0958 32.8489C48.2629 32.699 48.4931 32.6415 48.735 32.6705C48.9998 32.705 49.2593 32.8432 49.4494 33.0678C49.6394 33.2868 49.7487 33.5576 49.7487 33.828C49.7487 34.0755 49.6567 34.2945 49.4839 34.4387L46.2873 37.2207C46.0917 37.3935 46.0684 37.6932 46.2411 37.8889C46.4139 38.0845 46.7136 38.1078 46.9093 37.9351L50.1059 35.1531C50.2558 35.0205 50.3767 34.871 50.4747 34.6979C50.6186 34.4387 50.6937 34.145 50.6937 33.828C50.6937 33.327 50.5093 32.8316 50.1638 32.4399C49.8182 32.0425 49.3518 31.789 48.8563 31.7255C48.338 31.6564 47.8426 31.8002 47.4682 32.1289L46.898 32.6243C46.8579 32.6416 46.8233 32.6645 46.7888 32.6934L43.7532 35.366L42.5841 36.3854C42.5612 36.4026 42.5439 36.4199 42.5322 36.4428L41.5013 37.3529C40.7584 38.0038 40.263 38.9021 40.1015 39.8756L39.2951 44.7312L38.4771 44.6219C38.3505 44.6047 38.2236 44.6392 38.1259 44.7139C38.0279 44.7887 37.9588 44.904 37.9415 45.0305L37.2733 50.0878C37.2388 50.347 37.4232 50.5889 37.6824 50.6178L46.7603 51.8215C46.8869 51.8388 47.0139 51.8042 47.1115 51.7295C47.1633 51.6893 47.2095 51.6375 47.2381 51.5857C47.267 51.5338 47.2843 51.4764 47.2955 51.4185L47.9637 46.3612C47.9982 46.1021 47.8138 45.8602 47.5547 45.8313L47.0131 45.7622L47.2148 44.5524C47.3413 43.7922 47.7274 43.0951 48.3093 42.5825L48.4531 42.4559C48.4704 42.4442 48.4876 42.433 48.4993 42.4213L53.7868 37.7614C54.1556 37.4331 54.4666 37.047 54.7024 36.6207C54.9387 36.1944 55.1058 35.7279 55.1862 35.2382L56.3442 28.2918C56.3498 28.2745 56.3498 28.2516 56.3498 28.2343L57.0179 24.2252C57.0987 23.7242 56.9488 23.2232 56.5917 22.8141C56.2578 22.4232 55.7736 22.164 55.2324 22.072L55.2322 22.0721ZM46.4251 50.832L38.2861 49.7548L38.8333 45.6365L46.9723 46.7137L46.4251 50.832Z" fill="black"/>
<path d="M33.8688 44.7318C33.7708 44.657 33.6442 44.6225 33.5176 44.6398L32.6996 44.7491L31.8932 39.8935C31.7321 38.92 31.2307 38.0216 30.4934 37.3707L29.4625 36.4606C29.4452 36.4434 29.4279 36.4205 29.4107 36.4032L28.2415 35.3839L25.206 32.7112C25.1714 32.6823 25.1369 32.6594 25.0967 32.6421L24.5265 32.1467C24.1521 31.8185 23.6567 31.6742 23.1384 31.7433C22.643 31.8068 22.1765 32.0599 21.831 32.4577C21.4854 32.8551 21.2954 33.3448 21.301 33.8458C21.301 34.1625 21.3818 34.4566 21.52 34.7157C21.612 34.8829 21.739 35.0383 21.8888 35.1709L25.0854 37.9529C25.2811 38.1257 25.5808 38.1028 25.7536 37.9067C25.9264 37.711 25.9035 37.4113 25.7074 37.2385L22.5108 34.4566C22.3436 34.3127 22.2516 34.0938 22.2516 33.8458C22.2516 33.575 22.3553 33.3042 22.551 33.0857C22.741 32.8667 23.0002 32.7229 23.2653 32.6883C23.5128 32.6537 23.7379 32.7172 23.9046 32.8667L27.6138 36.1095L27.6484 36.1384L29.8602 38.091C30.4364 38.5981 30.8277 39.3009 30.9547 40.061L31.7555 44.8881L25.92 45.6418L25.7127 44.4035C25.5515 43.43 25.0501 42.5316 24.3129 41.8807L19.0254 37.2208C19.0081 37.2091 18.9965 37.1979 18.9792 37.1862L18.8354 37.0597C18.2592 36.5526 17.8679 35.8499 17.7409 35.0897L16.9807 30.5105C16.9807 30.4933 16.9807 30.476 16.9751 30.4587L15.9151 24.0708C15.8344 23.5983 16.3012 23.1145 16.9232 23.0108C17.2458 22.959 17.5685 23.0052 17.816 23.1547C18.0406 23.2812 18.1788 23.4713 18.2194 23.6846L19.2732 30.2221C19.3134 30.4813 19.5613 30.654 19.8148 30.6138C20.074 30.5737 20.2468 30.3258 20.2066 30.0722L19.1527 23.5347C19.072 23.0337 18.761 22.6074 18.2889 22.3367C17.8453 22.0831 17.3041 21.9911 16.7625 22.0775C16.2209 22.1695 15.7371 22.4287 15.4032 22.8148C15.046 23.2238 14.8905 23.7305 14.9769 24.2259L15.6451 28.235C15.6451 28.2522 15.6451 28.2751 15.6507 28.2924L16.8087 35.2389C16.8894 35.7286 17.0562 36.1951 17.2924 36.6214C17.5287 37.0476 17.8397 37.4394 18.2081 37.7621L23.4956 42.422C23.5129 42.4337 23.5245 42.4449 23.5418 42.4566L23.6856 42.5831C24.2618 43.0902 24.6531 43.7929 24.7801 44.553L24.9818 45.7628L24.4402 45.832C24.1811 45.8665 23.9966 46.1028 24.0312 46.3619L24.6994 51.4192C24.705 51.4766 24.7283 51.5345 24.7568 51.5863C24.7857 51.6438 24.8315 51.69 24.8834 51.7302C24.9814 51.8049 25.108 51.8395 25.2345 51.8222L34.3125 50.6184C34.5717 50.5839 34.7561 50.3476 34.7215 50.0829L34.0534 45.0256C34.0301 44.9163 33.9666 44.807 33.8689 44.7319L33.8688 44.7318ZM25.5743 50.8317L25.0271 46.7134L33.166 45.6362L33.7133 49.7545L25.5743 50.8317Z" fill="black"/>
<path d="M44.2255 25.3092C44.2255 20.6381 40.4238 16.842 35.7583 16.842C31.0871 16.842 27.2911 20.6437 27.2911 25.3092C27.2911 29.9804 31.0928 33.7764 35.7583 33.7764C40.4238 33.7764 44.2255 29.9751 44.2255 25.3092ZM35.7583 32.7339C31.6629 32.7339 28.3281 29.3986 28.3281 25.3037C28.3281 21.2083 31.6633 17.8735 35.7583 17.8735C39.8536 17.8735 43.1885 21.2087 43.1885 25.3037C43.1828 29.4047 39.8536 32.7339 35.7583 32.7339Z" fill="black"/>
<path d="M38.0098 25.2751C37.7969 25.0622 37.52 24.8834 37.1862 24.7335C37.0078 24.6588 36.6506 24.5491 36.1034 24.4169V21.295C36.4545 21.3697 36.737 21.5196 36.9387 21.7442C37.1404 21.9688 37.2726 22.2971 37.3361 22.7234L38.4534 22.5562C38.3554 21.8708 38.0733 21.3291 37.6008 20.9379C37.232 20.6269 36.7309 20.4425 36.1033 20.385V19.8667H35.4641V20.385C34.7441 20.4597 34.2085 20.6558 33.8397 20.9724C33.2924 21.4505 33.0216 22.0725 33.0216 22.8443C33.0216 23.2762 33.1136 23.6623 33.3037 24.0023C33.4881 24.3422 33.7529 24.607 34.0984 24.803C34.5649 25.0622 35.0201 25.235 35.4636 25.3213V28.7658C35.0373 28.7196 34.6745 28.5067 34.3691 28.1206C34.1562 27.8498 34.0063 27.4235 33.9256 26.8416L32.8367 27.0433C32.8769 27.6022 33.0211 28.0799 33.2686 28.466C33.5161 28.8578 33.8102 29.1342 34.1441 29.3126C34.484 29.4854 34.9216 29.6063 35.4632 29.6754V30.7582H36.1024V29.6637C36.8626 29.6291 37.4789 29.3583 37.957 28.8573C38.4351 28.3563 38.6714 27.7339 38.6714 26.9794C38.6714 26.6394 38.6139 26.3228 38.4986 26.0291C38.3841 25.7358 38.223 25.4823 38.0096 25.275L38.0098 25.2751ZM35.4641 24.2731C34.9687 24.1232 34.6232 23.9276 34.4159 23.6797C34.2086 23.4322 34.1049 23.1208 34.1049 22.7523C34.1049 22.3779 34.2259 22.0552 34.4677 21.7848C34.7096 21.514 35.0439 21.3413 35.4641 21.2778L35.4641 24.2731ZM37.146 28.213C36.8696 28.524 36.5241 28.7084 36.1034 28.7603V25.4656C36.6851 25.6557 37.0709 25.869 37.2669 26.1049C37.4625 26.3411 37.5606 26.6577 37.5606 27.0495C37.5606 27.5103 37.4224 27.9021 37.146 28.213L37.146 28.213Z" fill="black"/>
<path d="M46.9152 17.747C50.1407 17.747 52.7616 15.1262 52.7616 11.9006C52.7616 8.6751 50.1408 6.0542 46.9152 6.0542C43.6896 6.0542 41.0688 8.675 41.0688 11.9006C41.0688 15.1205 43.6896 17.747 46.9152 17.747ZM46.9152 7.091C49.565 7.091 51.7189 9.24534 51.7189 11.9008C51.7189 14.5506 49.5646 16.7045 46.9152 16.7045C44.2654 16.7045 42.1115 14.5502 42.1115 11.9008C42.1111 9.251 44.2654 7.091 46.9152 7.091Z" fill="black"/>
<path d="M45.9884 13.7779C45.8446 13.5935 45.7466 13.3114 45.6891 12.9197L44.9575 13.0579C44.9864 13.4324 45.0784 13.755 45.2455 14.0142C45.4127 14.2733 45.6084 14.4634 45.8329 14.5787C46.0575 14.694 46.3573 14.7743 46.7201 14.8206V15.5462H47.1464V14.8145C47.6534 14.7916 48.0681 14.6128 48.3907 14.2729C48.7134 13.939 48.8689 13.5184 48.8689 13.0173C48.8689 12.7871 48.8287 12.5794 48.7536 12.3781C48.6788 12.1824 48.5691 12.0153 48.4253 11.871C48.2815 11.7272 48.097 11.6063 47.8724 11.5082C47.7515 11.4564 47.5096 11.3873 47.1468 11.2953V9.20442C47.3831 9.25062 47.5675 9.35428 47.7057 9.50375C47.8439 9.65361 47.9303 9.87259 47.9765 10.1603L48.7254 10.045C48.6619 9.5841 48.4719 9.22692 48.1553 8.96218C47.9078 8.75486 47.5735 8.63392 47.1532 8.59334V8.2478H46.7269V8.59334C46.2432 8.63955 45.886 8.77174 45.6381 8.99071C45.2753 9.31334 45.0909 9.72799 45.0909 10.2463C45.0909 10.5344 45.1543 10.7935 45.2809 11.0237C45.4075 11.254 45.5863 11.4328 45.8165 11.5593C46.1275 11.7321 46.4328 11.8474 46.7322 11.9049V14.2147C46.4376 14.181 46.1958 14.0371 45.9884 13.778V13.7779ZM47.1517 12.0036C47.5434 12.1302 47.8025 12.2744 47.9291 12.4299C48.0617 12.591 48.1248 12.7987 48.1248 13.0635C48.1248 13.3745 48.0328 13.6337 47.8484 13.841C47.6639 14.0483 47.4337 14.1749 47.1513 14.2098L47.1517 12.0036ZM46.017 10.8055C45.8788 10.6384 45.8097 10.4311 45.8097 10.1836C45.8097 9.93607 45.8905 9.7171 46.0516 9.53268C46.2127 9.34826 46.4377 9.23898 46.7198 9.19277V11.1973C46.3915 11.1052 46.1553 10.9727 46.0171 10.8055L46.017 10.8055Z" fill="black"/>
<path d="M30.2575 16.1569C33.1258 16.1569 35.4585 13.8241 35.4585 10.9614C35.4585 8.09302 33.1257 5.76588 30.2575 5.76588C27.3891 5.76025 25.0564 8.09302 25.0564 10.9557C25.0564 13.8241 27.3892 16.1568 30.2575 16.1568V16.1569ZM30.2575 6.80299C32.5501 6.80299 34.4164 8.66933 34.4164 10.9619C34.4164 13.2545 32.5501 15.1208 30.2575 15.1208C27.9649 15.1208 26.0985 13.2545 26.0985 10.9619C26.0985 8.66326 27.9649 6.80299 30.2575 6.80299V6.80299Z" fill="black"/>
<path d="M29.4387 12.6093C29.3122 12.4482 29.2258 12.2003 29.1796 11.8548L28.5404 11.9757C28.5633 12.3039 28.6496 12.5864 28.7939 12.8166C28.9377 13.0469 29.1105 13.2084 29.3122 13.312C29.5139 13.4157 29.773 13.4848 30.0896 13.525V14.1642H30.4641V13.5189C30.9077 13.496 31.2761 13.3406 31.553 13.0464C31.835 12.7527 31.9736 12.3839 31.9736 11.9403C31.9736 11.7386 31.9391 11.5542 31.8756 11.3814C31.8065 11.2087 31.7145 11.0588 31.5875 10.9379C31.4609 10.8113 31.2994 10.7076 31.1038 10.6213C31.0001 10.5751 30.7871 10.512 30.4645 10.4312V8.59387C30.6718 8.63405 30.8334 8.72646 30.9543 8.85865C31.0752 8.99124 31.15 9.18128 31.1905 9.43481L31.8471 9.33678C31.7896 8.93338 31.6225 8.61677 31.346 8.38655C31.1271 8.20213 30.8334 8.09847 30.4649 8.05829V7.75293H30.0905V8.05829C29.6698 8.09847 29.3475 8.21378 29.1342 8.40383C28.8116 8.68589 28.6505 9.04909 28.6505 9.50389C28.6505 9.75741 28.7023 9.98763 28.8176 10.1893C28.9269 10.391 29.0824 10.5465 29.2841 10.6618C29.5605 10.8173 29.8257 10.9154 30.0848 10.9672V12.9946C29.8361 12.9661 29.6232 12.8395 29.4388 12.6093L29.4387 12.6093ZM30.4585 11.0479C30.7984 11.1572 31.0286 11.2842 31.1439 11.4224C31.2592 11.5606 31.3167 11.7506 31.3167 11.9813C31.3167 12.2521 31.2359 12.4823 31.0748 12.6667C30.9137 12.8511 30.706 12.9604 30.4585 12.9894V11.0479ZM29.4677 9.99971C29.3467 9.85588 29.2833 9.67145 29.2833 9.45248C29.2833 9.23351 29.3524 9.04346 29.4962 8.88234C29.64 8.72123 29.8361 8.6232 30.0836 8.58301V10.3457C29.7959 10.2649 29.5886 10.144 29.4677 9.99973L29.4677 9.99971Z" fill="black"/>
</svg>
