<svg width="72" height="72" viewBox="0 0 72 72" fill="none" xmlns="http://www.w3.org/2000/svg">
<path d="M36 56.4748C28.6088 56.4748 21.6566 53.5948 16.4366 48.3636C11.2166 43.1323 8.32536 36.1914 8.32536 28.8001C8.32536 21.4088 11.2054 14.4567 16.4366 9.2367C21.6678 4.0167 28.6087 1.12549 36 1.12549C43.3913 1.12549 50.3434 4.00549 55.5634 9.2367C60.7834 14.4679 63.6747 21.4088 63.6747 28.8001C63.6747 36.1914 60.7946 43.1436 55.5634 48.3636C50.3322 53.5836 43.3913 56.4748 36 56.4748V56.4748ZM36 2.24951C28.9125 2.24951 22.2408 5.00577 17.2234 10.0232C12.2061 15.0407 9.44969 21.7119 9.44969 28.7998C9.44969 35.8877 12.206 42.559 17.2234 47.5764C22.2409 52.5938 28.9121 55.3501 36 55.3501C43.0879 55.3501 49.7592 52.5939 54.7766 47.5764C59.7939 42.5589 62.5503 35.8877 62.5503 28.7998C62.5503 21.7119 59.7941 15.0406 54.7766 10.0232C49.7591 5.00588 43.0879 2.24951 36 2.24951V2.24951Z" fill="black"/>
<path d="M17.0774 48.1721C16.9311 48.1721 16.7849 48.1158 16.6836 48.0033C16.4586 47.7783 16.4586 47.4296 16.6836 47.2046L54.5289 9.37065C54.7539 9.14565 55.1026 9.14565 55.3276 9.37065C55.5526 9.59565 55.5526 9.9444 55.3276 10.1694L17.4711 48.0033C17.3698 48.1159 17.2236 48.1721 17.0773 48.1721H17.0774Z" fill="black"/>
</svg>
