<svg width="72" height="72" viewBox="0 0 72 72" fill="none" xmlns="http://www.w3.org/2000/svg">
<path d="M44.8354 12.0158C45.5948 12.0917 46.3047 12.428 46.8443 12.9676C47.3839 13.5072 47.7202 14.2171 47.7962 14.9765C47.7962 15.218 47.9922 15.414 48.2341 15.414C48.4756 15.414 48.6716 15.218 48.6716 14.9765C48.7476 14.2171 49.0839 13.5072 49.6235 12.9676C50.1635 12.428 50.873 12.0917 51.6324 12.0158C51.871 12.0158 52.0643 11.8225 52.0643 11.5838C52.0643 11.3452 51.871 11.1515 51.6324 11.1515C50.873 11.0756 50.1635 10.7393 49.6235 10.1997C49.0839 9.66009 48.7476 8.95049 48.6716 8.1912C48.6716 7.95254 48.4784 7.75928 48.2397 7.75928C48.0011 7.75928 47.8078 7.95254 47.8078 8.1912C47.7319 8.95057 47.3956 9.6601 46.856 10.1997C46.316 10.7393 45.6065 11.0756 44.8471 11.1515C44.6084 11.1515 44.4152 11.3452 44.4152 11.5838C44.4152 11.8225 44.6084 12.0158 44.8471 12.0158H44.8354ZM48.2281 9.79229C48.6435 10.5505 49.2671 11.1741 50.0253 11.5895C49.2675 12.0054 48.6439 12.6286 48.2281 13.3867C47.8126 12.6286 47.189 12.0054 46.4308 11.5895C47.189 11.1741 47.8126 10.5505 48.2281 9.79229V9.79229Z" fill="black"/>
<path d="M17.3613 37.4399C16.6429 37.3688 15.9715 37.051 15.4608 36.5407C14.9505 36.0305 14.6327 35.3587 14.5616 34.6407C14.5616 34.402 14.3683 34.2087 14.1297 34.2087C13.891 34.2087 13.6977 34.402 13.6977 34.6407C13.6266 35.3587 13.3088 36.0305 12.7986 36.5407C12.2883 37.051 11.6165 37.3688 10.8985 37.4399C10.6598 37.4399 10.4666 37.6332 10.4666 37.8719C10.4666 38.1105 10.6598 38.3038 10.8985 38.3038C11.6165 38.3749 12.2883 38.6927 12.7986 39.203C13.3088 39.7136 13.6266 40.385 13.6977 41.1035C13.6977 41.3421 13.891 41.5354 14.1297 41.5354C14.3683 41.5354 14.5616 41.3421 14.5616 41.1035C14.6327 40.3851 14.9505 39.7137 15.4608 39.203C15.9714 38.6927 16.6428 38.3749 17.3613 38.3038C17.5999 38.3038 17.7932 38.1105 17.7932 37.8719C17.7932 37.6332 17.5999 37.4399 17.3613 37.4399ZM14.1124 39.571C13.7203 38.8711 13.1421 38.2929 12.4422 37.9008C13.1425 37.5087 13.7207 36.9305 14.1124 36.2302C14.5046 36.9305 15.0827 37.5087 15.783 37.9008C15.0827 38.293 14.5045 38.8712 14.1124 39.571Z" fill="black"/>
<path d="M16.6516 30.245C17.6902 30.9891 18.9341 31.3917 20.2114 31.3973C20.5706 31.3969 20.929 31.3664 21.2829 31.3049C23.2103 30.9779 24.8701 29.7589 25.7585 28.0171C26.6468 26.2753 26.6597 24.2158 25.793 22.4632C26.3724 22.1868 26.924 21.8549 27.4404 21.4728C27.6328 21.331 27.6738 21.0602 27.5324 20.8677C27.391 20.6753 27.1201 20.6343 26.9277 20.7757C26.4367 21.1397 25.91 21.4523 25.3551 21.7087C24.3257 20.1835 22.6716 19.1947 20.841 19.0099C19.0101 18.8251 17.192 19.4631 15.8782 20.7517C14.5647 22.0402 13.8914 23.8454 14.0408 25.6796C14.1903 27.5137 15.1469 29.1864 16.6516 30.2451L16.6516 30.245ZM19.2957 19.9233C20.2781 19.7525 21.2886 19.8614 22.2123 20.2371C23.136 20.6132 23.9355 21.2408 24.5197 22.0487C21.0635 23.2585 17.5672 22.0487 16.3061 21.5477C17.0968 20.6919 18.1474 20.121 19.2957 19.9233V19.9233ZM15.7476 22.2271V22.2275C17.4873 23.0021 19.3669 23.414 21.2713 23.4369C22.5414 23.4546 23.8038 23.2416 24.9978 22.8093C25.5571 23.9319 25.7026 25.2164 25.4089 26.4358C25.1147 27.6552 24.4008 28.7324 23.3915 29.4773C22.3822 30.2226 21.1428 30.5883 19.8908 30.5099C18.6388 30.4316 17.4543 29.9145 16.5456 29.0499C15.6371 28.1848 15.0626 27.0273 14.9228 25.7805C14.7834 24.5338 15.0875 23.2778 15.7822 22.2332L15.7476 22.2271Z" fill="black"/>
<path d="M20.195 28.4194C21.3349 28.425 22.4077 27.8802 23.075 26.956C23.2148 26.7624 23.171 26.4916 22.977 26.3513C22.7829 26.2115 22.5121 26.2553 22.3723 26.4494C21.9536 27.0187 21.3264 27.3988 20.6277 27.5064C19.9294 27.6145 19.2166 27.4413 18.6457 27.0255C18.4452 26.8869 18.1704 26.9371 18.0321 27.1376C17.8935 27.3381 17.9442 27.6125 18.1442 27.7511C18.7409 28.183 19.4584 28.4169 20.195 28.4193L20.195 28.4194Z" fill="black"/>
<path d="M27.2448 45.1523C26.6614 45.5528 25.9427 45.7051 25.2471 45.5754C24.5513 45.4456 23.9357 45.045 23.5355 44.4612C23.4001 44.2639 23.1309 44.2137 22.9336 44.3487C22.7363 44.4841 22.6861 44.7533 22.8211 44.9506C23.3491 45.724 24.1639 46.2552 25.0848 46.4251C25.3014 46.4665 25.5211 46.4878 25.7417 46.4886C26.4537 46.4882 27.1488 46.2713 27.7346 45.8667C27.9318 45.7313 27.9821 45.4617 27.8467 45.2644C27.7117 45.0675 27.4421 45.0169 27.2448 45.1523L27.2448 45.1523Z" fill="black"/>
<path d="M31.2768 40.6192C30.4439 38.8325 28.8099 37.5491 26.8765 37.1634C26.8508 36.4715 26.5245 35.8259 25.9829 35.3948C25.4417 34.9633 24.7389 34.7901 24.0592 34.9203C23.3793 35.0501 22.7903 35.4707 22.446 36.071C22.1016 36.6717 22.0369 37.3926 22.2684 38.0447L22.0839 38.16C20.8617 39.0142 19.9918 40.2835 19.6358 41.7311C19.6013 41.8693 19.5667 42.0075 19.5438 42.1457V42.1461C19.2594 43.7645 19.629 45.4295 20.572 46.7755C21.515 48.1215 22.9538 49.0375 24.5722 49.3229C26.0653 49.5872 27.6033 49.2948 28.895 48.5004C30.1864 47.7065 31.1418 46.4662 31.5798 45.0145C32.0177 43.5629 31.908 42.0011 31.2712 40.6254L31.2768 40.6192ZM23.0113 36.9155C23.0913 36.4242 23.4087 36.0035 23.8595 35.7917C24.3103 35.5796 24.8366 35.6041 25.2657 35.8564C25.6953 36.1087 25.9725 36.5571 26.0066 37.0538C24.9909 36.9983 23.9776 37.1964 23.0575 37.6299C22.9848 37.3989 22.9691 37.1542 23.0113 36.9156L23.0113 36.9155ZM22.6023 38.8682C23.4894 38.243 24.5469 37.9055 25.6321 37.9007C25.9467 37.8999 26.2609 37.9272 26.5711 37.9814C28.2088 38.2703 29.6174 39.3078 30.3785 40.7864C28.8292 42.4281 23.2419 41.9383 20.6151 41.4774L20.6155 41.4778C20.9847 40.4195 21.6806 39.5059 22.6023 38.8682L22.6023 38.8682ZM30.9196 44.1617H30.92C30.5906 46.0397 29.2848 47.599 27.4936 48.2527C25.7029 48.9064 23.6996 48.5552 22.2379 47.331C20.7761 46.1072 20.0787 44.1962 20.4077 42.3187C22.1418 42.6136 23.8964 42.7715 25.6555 42.7908C27.6311 42.7908 29.6243 42.5261 30.7473 41.6389C31.0077 42.4538 31.0667 43.3192 30.9201 44.1617L30.9196 44.1617Z" fill="black"/>
<path d="M47.0479 45.8095C48.1492 45.8123 49.189 45.3012 49.8588 44.4273C49.9893 44.2376 49.948 43.9789 49.7652 43.8395C49.5827 43.6997 49.3224 43.7274 49.1733 43.903C48.7422 44.4647 48.1058 44.8323 47.4039 44.9251C46.702 45.0179 45.9919 44.8287 45.4295 44.3984C45.3391 44.3216 45.2214 44.2855 45.1037 44.2983C44.986 44.3108 44.8787 44.3715 44.8068 44.4655C44.7348 44.5595 44.7047 44.6788 44.7236 44.7957C44.7421 44.9127 44.808 45.0167 44.9052 45.0838C45.5199 45.5551 46.2733 45.8106 47.0479 45.8094L47.0479 45.8095Z" fill="black"/>
<path d="M55.3536 38.1599L51.8629 38.6609C50.5338 37.0249 48.4625 36.1783 46.368 36.4145C46.1322 35.9637 45.6934 35.6544 45.1896 35.5832C44.6858 35.5125 44.1787 35.6885 43.8276 36.0569C43.4764 36.425 43.3241 36.9401 43.419 37.4399C43.4274 37.468 43.439 37.4949 43.4535 37.5206C42.1425 38.4588 41.2485 39.8703 40.96 41.4561C40.672 43.0424 41.0127 44.6784 41.9099 46.0176C42.8067 47.3568 44.19 48.2946 45.7662 48.6317C47.3428 48.9688 48.9885 48.6791 50.355 47.8237C51.7214 46.9687 52.701 45.615 53.087 44.05C53.4728 42.4847 53.2341 40.8309 52.4217 39.4388L55.48 39.0008C55.6994 38.951 55.8437 38.7413 55.8119 38.5191C55.7802 38.2965 55.5837 38.1354 55.3591 38.1482L55.3536 38.1599ZM44.3232 36.691C44.4386 36.4921 44.6431 36.3619 44.8721 36.3414C45.1011 36.3206 45.3261 36.4126 45.4752 36.5873C45.0461 36.7019 44.631 36.8622 44.2365 37.0655C44.2296 36.9353 44.2598 36.8055 44.3232 36.691H44.3232ZM42.7964 39.3754C43.6422 38.2387 44.9074 37.4877 46.31 37.2901C47.9738 37.0511 49.6529 37.6128 50.8378 38.8052L42.3934 40.0146C42.5128 39.7924 42.6474 39.5787 42.7964 39.3754V39.3754ZM52.3465 41.8174H52.3469C52.5723 43.4233 52.0552 45.045 50.9415 46.2234C49.8277 47.4018 48.2379 48.0097 46.6219 47.8752C45.0059 47.7406 43.5389 46.8779 42.6353 45.5312C41.7321 44.1843 41.4902 42.5001 41.9788 40.9536L51.4771 39.5884C51.9343 40.2533 52.2336 41.0139 52.3526 41.8118L52.3465 41.8174Z" fill="black"/>
<path d="M58.8384 19.8782C57.6439 18.7451 56.0424 18.1429 54.3975 18.2076C52.2479 18.2743 50.2868 19.4524 49.2188 21.319C48.1508 23.1861 48.1291 25.4735 49.1618 27.3602L48.8447 29.9521C48.7632 30.4962 48.9255 31.0482 49.2887 31.4613C49.6519 31.8743 50.1787 32.1061 50.7283 32.0949H50.803L58.9131 31.8241H58.9135C59.4776 31.8221 60.0108 31.5641 60.3632 31.1234C60.7156 30.6826 60.8498 30.106 60.7276 29.5548L60.2378 26.9857H60.2382C60.7843 25.8033 60.9434 24.4786 60.6931 23.2005C60.4428 21.9224 59.7959 20.7556 58.8444 19.8665L58.8384 19.8782ZM59.9385 24.2271V24.2267C59.9883 25.6964 59.429 27.1208 58.3928 28.1642C57.3571 29.2077 55.9363 29.777 54.4666 29.738C52.9969 29.699 51.6083 29.0554 50.6291 27.9585C49.6499 26.8616 49.167 25.4092 49.294 23.9447C50.7111 23.8812 55.5956 23.4031 57.0412 19.6995C57.042 19.6862 57.042 19.6725 57.0412 19.6593C57.4795 19.8847 57.8845 20.1695 58.2453 20.5058C59.2847 21.4697 59.8947 22.81 59.9385 24.2268V24.2271ZM54.432 19.0714H54.6164C55.1801 19.0734 55.7403 19.1646 56.2754 19.3422C56.2626 19.3587 56.2509 19.3759 56.2409 19.394C55.0544 22.4351 50.9188 22.9768 49.4499 23.0748C49.7372 21.9594 50.3781 20.967 51.2756 20.2454C52.1736 19.5238 53.2809 19.1119 54.4321 19.0714L54.432 19.0714ZM59.8811 29.7274C59.9538 30.0295 59.8835 30.3486 59.6898 30.5916C59.4962 30.8347 59.2013 30.9749 58.8903 30.9717L50.7802 31.2425V31.2421C50.4712 31.2638 50.1687 31.1457 49.9565 30.9199C49.7512 30.6869 49.6604 30.3743 49.709 30.0673L49.9107 28.4372H49.9103C51.086 29.8106 52.8028 30.6016 54.6108 30.6029H54.8237C56.4674 30.5531 58.0231 29.8479 59.1437 28.6446C59.2992 28.4778 59.4451 28.3031 59.5817 28.1202L59.8811 29.7274Z" fill="black"/>
<path d="M56.5519 25.9487C56.0625 26.4594 55.3903 26.7551 54.6832 26.7716C53.976 26.7876 53.2914 26.5228 52.7791 26.0351C52.6031 25.9266 52.3753 25.9575 52.2351 26.109C52.0948 26.2605 52.0812 26.4903 52.2029 26.657C52.8811 27.3027 53.7875 27.6535 54.7237 27.6318C55.6599 27.6105 56.5494 27.2183 57.1967 26.5417C57.3012 26.4658 57.3663 26.3468 57.3739 26.2179C57.3812 26.0889 57.3309 25.9635 57.2361 25.8755C57.1413 25.788 57.0123 25.7474 56.8841 25.7646C56.756 25.7819 56.6427 25.8559 56.5748 25.9659L56.5519 25.9487Z" fill="black"/>
<path d="M44.3695 26.0754C44.6122 24.3991 44.1578 22.6967 43.1119 21.3649C42.066 20.0325 40.52 19.1867 38.834 19.0249C37.1481 18.8625 35.4695 19.3981 34.189 20.5066C32.9085 21.6151 32.1379 23.1998 32.0564 24.8913C31.9752 26.5832 32.5907 28.2342 33.7592 29.4604C34.9275 30.6863 36.5471 31.3802 38.2411 31.3806C39.7289 31.3782 41.1664 30.841 42.2915 29.8674C43.4165 28.8935 44.1541 27.5475 44.3695 26.0754V26.0754ZM38.235 19.8489C39.7783 19.8582 41.2419 20.5348 42.2492 21.704C43.2561 22.8731 43.7081 24.4213 43.4883 25.9489C43.4883 26.0927 43.4365 26.237 43.4019 26.3752C42.0857 24.9621 40.3279 24.0388 38.4174 23.7576C36.5073 23.4759 34.5579 23.8524 32.89 24.8255C32.89 24.6873 32.89 24.5491 32.9302 24.4049V24.4053C33.1199 23.1352 33.7603 21.9757 34.7342 21.1391C35.7082 20.3026 36.9509 19.8446 38.235 19.849L38.235 19.8489ZM37.4632 30.4587C36.3033 30.2871 35.2317 29.7383 34.4144 28.8973C33.5972 28.0559 33.0796 26.9691 32.9419 25.8044H32.9993C33.2183 25.6545 38.3676 22.1987 43.1023 27.2962C42.6374 28.3674 41.8343 29.2569 40.8158 29.8278C39.7972 30.3992 38.62 30.6206 37.4632 30.4586L37.4632 30.4587Z" fill="black"/>
<path d="M39.8706 27.0721C39.2992 27.4883 38.5865 27.6615 37.8882 27.5534C37.1899 27.4453 36.5627 27.0653 36.1436 26.4964C35.9978 26.3228 35.7427 26.2919 35.5594 26.4253C35.3762 26.5586 35.3268 26.811 35.4469 27.003C35.9962 27.7616 36.8254 28.2698 37.7507 28.4141C37.9416 28.443 38.134 28.4567 38.3269 28.4547C39.0726 28.4543 39.799 28.216 40.4005 27.7749C40.5946 27.6286 40.6331 27.3526 40.4869 27.1585C40.3406 26.9645 40.0646 26.9259 39.8705 27.0722L39.8706 27.0721Z" fill="black"/>
<path d="M37.3485 38.6435H36.7723V37.8833C36.7723 37.6447 36.5791 37.4514 36.3404 37.4514C36.1017 37.4514 35.9085 37.6447 35.9085 37.8833V38.6495H35.3323C35.0936 38.6495 34.9004 38.8428 34.9004 39.0815C34.9004 39.3201 35.0936 39.5134 35.3323 39.5134H35.9085V40.2796C35.9085 40.5178 36.1017 40.7115 36.3404 40.7115C36.5791 40.7115 36.7723 40.5178 36.7723 40.2796V39.5077H37.3485C37.5867 39.5077 37.7804 39.3141 37.7804 39.0754C37.7804 38.8372 37.5867 38.6435 37.3485 38.6435V38.6435Z" fill="black"/>
<path d="M36.3693 36.144C36.6075 36.144 36.8012 35.9508 36.8012 35.7121V34.6695C36.8012 34.4312 36.6075 34.2375 36.3693 34.2375C36.1306 34.2375 35.937 34.4312 35.937 34.6695V35.7121C35.937 35.9508 36.1306 36.144 36.3693 36.144Z" fill="black"/>
<path d="M26.5073 16.3696H27.0835V17.1358C27.0835 17.374 27.2768 17.5677 27.5154 17.5677C27.7541 17.5677 27.9473 17.374 27.9473 17.1358V16.3696H28.5235C28.7622 16.3696 28.9554 16.1763 28.9554 15.9377C28.9554 15.699 28.7622 15.5057 28.5235 15.5057H27.9361V14.7395C27.9361 14.5009 27.7424 14.3076 27.5038 14.3076C27.2655 14.3076 27.0719 14.5009 27.0719 14.7395V15.5057H26.4957H26.4961C26.2574 15.5057 26.0638 15.699 26.0638 15.9377C26.0638 16.1763 26.2574 16.3696 26.4961 16.3696H26.5073Z" fill="black"/>
<path d="M58.8209 43.2977H58.2448L58.2452 42.5371C58.2452 42.2989 58.0515 42.1052 57.8129 42.1052C57.5746 42.1052 57.3809 42.2989 57.3809 42.5371V43.3033H56.8048H56.8052C56.5665 43.3033 56.3729 43.4966 56.3729 43.7353C56.3729 43.9739 56.5665 44.1672 56.8052 44.1672H57.3813L57.3809 44.9278C57.3809 45.1664 57.5746 45.3597 57.8129 45.3597C58.0515 45.3597 58.2452 45.1664 58.2452 44.9278V44.1616H58.8213H58.8209C59.0596 44.1616 59.2529 43.9683 59.2529 43.7296C59.2529 43.491 59.0596 43.2977 58.8209 43.2977V43.2977Z" fill="black"/>
</svg>
