<svg width="32" height="32" viewBox="0 0 32 32" fill="none" xmlns="http://www.w3.org/2000/svg">
<path fill-rule="evenodd" clip-rule="evenodd" d="M14.2173 5.78311C14.7054 6.27126 14.7054 7.06272 14.2173 7.55088L8.88392 12.8842C8.39576 13.3724 7.60431 13.3724 7.11615 12.8842C6.628 12.3961 6.628 11.6046 7.11615 11.1164L12.4495 5.78311C12.9376 5.29495 13.7291 5.29495 14.2173 5.78311ZM2.84519 15.5219C3.03866 15.0548 3.49446 14.7502 4.00004 14.7502H28C28.6904 14.7502 29.25 15.3099 29.25 16.0002C29.25 16.6906 28.6904 17.2502 28 17.2502H7.0178L14.2173 24.4497C14.7054 24.9378 14.7054 25.7293 14.2173 26.2174C13.7291 26.7056 12.9376 26.7056 12.4495 26.2174L3.11615 16.8841C2.75866 16.5266 2.65171 15.989 2.84519 15.5219Z" fill="#22272F"/>
</svg>
