<svg width="32" height="32" viewBox="0 0 32 32" fill="none" xmlns="http://www.w3.org/2000/svg">
    <path fill-rule="evenodd" clip-rule="evenodd" d="M1.91669 16.0001C1.91669 8.22207 8.22201 1.91675 16 1.91675C23.778 1.91675 30.0834 8.22207 30.0834 16.0001C30.0834 23.7781 23.778 30.0834 16 30.0834C8.22201 30.0834 1.91669 23.7781 1.91669 16.0001ZM22.5304 13.1971C22.8232 12.9042 22.8232 12.4293 22.5304 12.1364C22.2375 11.8435 21.7626 11.8435 21.4697 12.1364L14.6667 18.9394L11.8637 16.1364C11.5708 15.8435 11.0959 15.8435 10.803 16.1364C10.5101 16.4293 10.5101 16.9042 10.803 17.1971L14.1364 20.5304C14.4292 20.8233 14.9041 20.8233 15.197 20.5304L22.5304 13.1971Z" fill="#4F4F4F"/>
</svg>
