<svg width="32" height="32" viewBox="0 0 32 32" fill="none" xmlns="http://www.w3.org/2000/svg">
<path fill-rule="evenodd" clip-rule="evenodd" d="M3 8C3 7.44772 3.44772 7 4 7H28C28.5523 7 29 7.44772 29 8C29 8.55228 28.5523 9 28 9H4C3.44772 9 3 8.55228 3 8ZM3 16C3 15.4477 3.44772 15 4 15H17.3333C17.8856 15 18.3333 15.4477 18.3333 16C18.3333 16.5523 17.8856 17 17.3333 17H4C3.44772 17 3 16.5523 3 16ZM21.6667 16C21.6667 15.4477 22.1144 15 22.6667 15H28C28.5523 15 29 15.4477 29 16C29 16.5523 28.5523 17 28 17H22.6667C22.1144 17 21.6667 16.5523 21.6667 16ZM4 23C3.44772 23 3 23.4477 3 24C3 24.5523 3.44772 25 4 25H9.33333C9.88562 25 10.3333 24.5523 10.3333 24C10.3333 23.4477 9.88562 23 9.33333 23H4ZM14.6667 23C14.1144 23 13.6667 23.4477 13.6667 24C13.6667 24.5523 14.1144 25 14.6667 25H16H28C28.5523 25 29 24.5523 29 24C29 23.4477 28.5523 23 28 23H16H14.6667Z" fill="#22272F"/>
</svg>
