<svg width="32" height="32" viewBox="0 0 32 32" fill="none" xmlns="http://www.w3.org/2000/svg">
<path fill-rule="evenodd" clip-rule="evenodd" d="M15.9998 1.66699C10.8714 1.66699 6.45599 5.28677 5.45024 10.3155L3.77852 18.6741C3.24155 21.359 4.66676 24.0578 7.15651 25.1643C8.06561 25.5684 8.9987 25.9067 9.94799 26.1794L10.0865 26.491C11.1251 28.8279 13.4426 30.334 15.9999 30.334C18.5572 30.334 20.8747 28.8279 21.9133 26.491L22.0518 26.1793C23.001 25.9066 23.934 25.5683 24.843 25.1643C27.3327 24.0578 28.7579 21.359 28.221 18.6741L27.7803 16.4709C27.672 15.9293 27.1452 15.5781 26.6036 15.6864C26.0621 15.7947 25.7109 16.3215 25.8192 16.8631L26.2598 19.0664C26.6106 20.8205 25.6776 22.6047 24.0307 23.3367C23.1057 23.7478 22.1529 24.084 21.1825 24.3453C21.1126 24.356 21.0441 24.3741 20.9782 24.3991C17.7227 25.2383 14.2777 25.2384 11.0222 24.3993C10.9559 24.3741 10.887 24.3559 10.8166 24.3452C9.84632 24.0839 8.89369 23.7478 7.96879 23.3367C6.32187 22.6047 5.38886 20.8205 5.73968 19.0664L7.4114 10.7078C8.23018 6.61385 11.8248 3.66699 15.9998 3.66699C20.0169 3.66699 23.4969 6.39544 24.4834 10.2484C24.6204 10.7834 25.1652 11.1061 25.7002 10.9691C26.2353 10.8321 26.5579 10.2873 26.4209 9.75229C25.2089 5.01847 20.9345 1.66699 15.9998 1.66699ZM12.5979 26.7645C13.434 27.7445 14.67 28.334 15.9999 28.334C17.3298 28.334 18.5658 27.7445 19.4019 26.7644C17.1501 27.1166 14.8498 27.1166 12.5979 26.7645Z" fill="#22272F"/>
</svg>
