<svg width="72" height="72" viewBox="0 0 72 72" fill="none" xmlns="http://www.w3.org/2000/svg">
<path d="M49.8919 39.0117C50.1261 39.0117 50.3154 38.822 50.3154 38.5882V29.8517C50.3154 29.6175 50.1261 29.4282 49.8919 29.4282H42.413C42.1788 29.4282 41.9896 29.6175 41.9896 29.8517V38.5882C41.9896 38.8224 42.1788 39.0117 42.413 39.0117H49.8919ZM42.8365 30.2752H49.4684V38.1646H42.8365V30.2752Z" fill="black"/>
<path d="M58.2963 10.7229V7.1747C58.2963 6.94047 58.1071 6.75122 57.8729 6.75122H43.1653C42.9311 6.75122 42.7418 6.94046 42.7418 7.1747V10.7229L38.0043 17.7835C38.0011 17.7883 38.0019 17.7943 37.9991 17.7996C37.9642 17.8562 37.9405 17.9193 37.9356 17.99C37.9352 17.994 37.9336 17.9972 37.9332 18.0013C37.9328 18.0073 37.93 18.0121 37.93 18.0181V24.4262C37.93 24.6605 38.1197 24.8497 38.3535 24.8497C38.5877 24.8497 38.777 24.6605 38.777 24.4262V18.4441H52.637V49.9996L40.6202 49.9984C40.3859 49.9984 40.1967 50.1876 40.1967 50.4219C40.1967 50.6561 40.3863 50.8454 40.6202 50.8454H53.0463C53.052 50.8458 53.0568 50.8486 53.0628 50.8486L62.682 50.849C62.9163 50.849 63.1055 50.6593 63.1055 50.4255L63.1059 18.0193C59.6144 12.5768 62.4868 17.0615 58.2965 10.7229L58.2963 10.7229ZM61.8879 17.5958H53.8566C54.1138 17.2129 58.091 11.2865 57.8725 11.612L61.8879 17.5958ZM43.5886 7.59817H57.4496V10.428H43.5886V7.59817ZM52.8803 17.5311L52.8381 17.5938H39.1509L43.3906 11.2752H57.0778L52.8803 17.5311ZM62.2584 50.0021H53.4862V18.4434H62.2584V50.0021Z" fill="black"/>
<path d="M60.4522 41.8957C60.6865 41.8957 60.8757 41.7065 60.8757 41.4722V39.5329C60.8757 39.2986 60.6865 39.1094 60.4522 39.1094C60.218 39.1094 60.0287 39.2986 60.0287 39.5329V41.4722C60.0287 41.7065 60.218 41.8957 60.4522 41.8957Z" fill="black"/>
<path d="M57.4262 48.6176H60.452C60.6863 48.6176 60.8755 48.4284 60.8755 48.1941V44.5985C60.8755 44.3643 60.6863 44.175 60.452 44.175C60.2178 44.175 60.0286 44.3643 60.0286 44.5985V47.7702H57.4262C57.1919 47.7702 57.0027 47.9595 57.0027 48.1937C57.0023 48.4284 57.1919 48.6176 57.4262 48.6176L57.4262 48.6176Z" fill="black"/>
<path d="M11.6661 49.9031C11.8396 50.4688 12.3551 50.8489 12.9473 50.8489H37.1373C37.7295 50.8489 38.2442 50.4688 38.4178 49.9035L39.8835 45.1476C40.7023 44.426 41.1897 43.4199 41.1897 42.358V41.3439C41.1897 40.4672 40.4765 39.7541 39.5998 39.7541L10.485 39.7537C9.60796 39.7537 8.89395 40.4668 8.89395 41.3435V42.3576C8.89395 43.4199 9.38132 44.4256 10.2001 45.1472L11.6661 49.9031ZM37.6087 49.654C37.5444 49.8621 37.3548 50.002 37.1374 50.002H12.9474C12.7289 50.002 12.5396 49.8621 12.4749 49.6536L11.3266 45.9255C12.4207 46.6595 13.0383 47.1882 14.5594 47.1882H14.5619H14.5643C17.3526 47.1882 17.3511 45.3031 19.7979 45.3018C22.1628 45.303 22.2939 47.1882 25.0268 47.1882H25.0292H25.0316C27.7505 47.1882 27.8975 45.3031 30.2701 45.3018C32.7022 45.303 32.7231 47.1882 35.5247 47.1882H35.5271H35.5295C37.0342 47.1882 37.6626 46.6595 38.7575 45.9251L37.6087 49.654ZM9.7416 41.3435C9.7416 40.9341 10.0751 40.6006 10.4853 40.6006H39.6001C40.0095 40.6006 40.343 40.9341 40.343 41.3435V42.3576C40.343 44.2821 38.7017 44.8993 37.8977 45.4779C34.3005 48.0666 33.5339 44.4545 30.2734 44.4545H30.271H30.2686C27.5497 44.4545 27.4027 46.3397 25.0297 46.3409C22.6446 46.3397 22.539 44.4545 19.8009 44.4545H19.7984H19.796C16.9888 44.4545 17.0132 46.3397 14.5624 46.3409C13.4964 46.3405 12.9672 46.04 12.1866 45.4775C12.1018 45.4164 10.743 44.5196 10.8313 44.5747C10.1427 44.009 9.74123 43.2179 9.74123 42.3576L9.7416 41.3435Z" fill="black"/>
<path d="M32.5286 36.8188C32.363 36.9844 32.363 37.2524 32.5286 37.4179C32.6941 37.5834 32.9621 37.5834 33.1276 37.4179L39.0933 31.4526C40.2043 30.3397 40.2433 28.5067 39.0933 27.356C37.9636 26.2269 36.1246 26.2269 34.9963 27.356L27.9707 34.3824C27.6055 33.8669 27.1422 33.392 26.595 32.9685L28.8213 30.7422C29.9507 29.6377 29.9635 27.7561 28.8245 26.642C27.6947 25.5129 25.8581 25.5129 24.7283 26.642L20.473 30.8973C20.2754 30.8884 20.0793 30.8764 19.8784 30.8764H19.8752H19.874H19.872C14.8967 30.8788 10.8503 33.6776 10.8503 37.1182C10.8503 37.3524 11.0395 37.5416 11.2737 37.5416C11.508 37.5416 11.6972 37.3524 11.6972 37.1182C11.6972 34.6448 14.2381 32.5599 17.6863 31.9255C17.1724 32.5254 16.8518 33.3301 16.8518 34.2202C16.8518 34.4544 17.041 34.6436 17.2753 34.6436C17.5095 34.6436 17.6988 34.4544 17.6988 34.2202C17.6988 32.844 18.6739 31.7246 19.8728 31.7235H19.8753C21.0726 31.7239 22.0465 32.8437 22.0465 34.2202C22.0465 34.4544 22.2357 34.6436 22.4699 34.6436C23.3699 34.6436 22.699 32.6713 22.0585 31.9243C24.8899 32.441 28.0487 34.2888 28.0487 37.1182C28.0487 37.3524 28.2384 37.5417 28.4722 37.5417H28.473H28.4738C28.708 37.5417 28.8973 37.3524 28.8973 37.1182C28.8973 36.483 28.7241 35.7814 28.4778 35.2423C29.0572 35.2057 30.2859 35.2443 30.8716 36.1298C31.003 36.3271 31.2658 36.3769 31.459 36.2491C31.6535 36.1202 31.7073 35.857 31.578 35.6621C30.9664 34.7388 29.9419 34.4637 29.1471 34.4017L31.1794 32.3695C31.6121 32.3209 33.0955 32.2353 33.7609 33.2406C33.8919 33.4378 34.155 33.4877 34.3483 33.3599C34.5428 33.2309 34.5966 32.9677 34.4672 32.7729C33.8565 31.8496 32.8308 31.5748 32.0356 31.5129L34.0682 29.4806C34.5018 29.434 35.9896 29.3525 36.6497 30.3509C36.7795 30.5478 37.0439 30.5984 37.2372 30.4706C37.4316 30.3417 37.4855 30.0789 37.3561 29.8836C36.7454 28.9603 35.7204 28.6851 34.9261 28.6232L35.5951 27.9542C36.395 27.1551 37.696 27.1559 38.4944 27.9542C39.3128 28.7747 39.2747 30.0729 38.4944 30.8532L32.5286 36.8188ZM21.5805 30.9869L23.7999 28.7675C24.2326 28.7205 25.7221 28.6389 26.3821 29.6377C26.5119 29.8346 26.7763 29.8848 26.9695 29.7571C27.164 29.6281 27.2178 29.3653 27.0885 29.1701C26.4773 28.2468 25.4516 27.9716 24.6572 27.9097L25.3266 27.2403C26.1041 26.4636 27.4444 26.4604 28.2283 27.2435C29.0275 28.0254 29.0226 29.3585 28.2251 30.1391L25.9064 32.4579C24.6797 31.7065 22.9806 31.1673 21.5803 30.9869L21.5805 30.9869Z" fill="black"/>
</svg>
